<svg width="1282" height="928" viewBox="0 0 1282 928" fill="none" xmlns="http://www.w3.org/2000/svg">
<g filter="url(#filter0_d_283_11)">
<path fill-rule="evenodd" clip-rule="evenodd" d="M1115.65 33.2386C1174.87 98.4365 1220.02 175.14 1248.28 258.564L1249.73 258.07L1250.17 257.922L1251.63 257.429C1251.41 256.797 1251.2 256.166 1250.98 255.535C1222.74 172.99 1178.03 97.0386 1119.56 32.2839C1119.12 31.7932 1118.67 31.3032 1118.23 30.8138L1118.22 30.8015L1117.08 31.8358L1116.74 32.1464L1115.6 33.1807L1115.65 33.2386ZM165.148 896.374L165.49 896.064L166.628 895.03C107.407 829.797 62.27 753.055 34.0361 669.596L32.5791 670.089L32.1416 670.237L30.6846 670.73L30.6849 670.731C30.8984 671.362 31.113 671.993 31.3284 672.623C59.5427 755.18 104.225 831.148 162.667 895.925C163.092 896.397 163.518 896.868 163.945 897.338L164.009 897.408L165.148 896.374ZM328.545 221.86L327.108 220.747L326.964 220.635C327.372 220.108 327.782 219.582 328.193 219.057C361.038 177.089 401.986 142.155 448.604 116.33C449.187 116.007 449.771 115.686 450.355 115.366L450.443 115.525L451.316 117.12L451.403 117.28C403.738 143.372 361.964 179.011 328.689 221.971L328.545 221.86ZM953.849 706.294C920.753 749.004 879.257 784.479 831.921 810.532L832.885 812.284C880.461 786.1 922.167 750.445 955.43 707.519L953.849 706.294Z" fill="white"/>
</g>
<defs>
<filter id="filter0_d_283_11" x="0.68457" y="0.801514" width="1280.94" height="926.607" filterUnits="userSpaceOnUse" color-interpolation-filters="sRGB">
<feFlood flood-opacity="0" result="BackgroundImageFix"/>
<feColorMatrix in="SourceAlpha" type="matrix" values="0 0 0 0 0 0 0 0 0 0 0 0 0 0 0 0 0 0 127 0" result="hardAlpha"/>
<feOffset/>
<feGaussianBlur stdDeviation="15"/>
<feColorMatrix type="matrix" values="0 0 0 0 1 0 0 0 0 1 0 0 0 0 1 0 0 0 0.55 0"/>
<feBlend mode="normal" in2="BackgroundImageFix" result="effect1_dropShadow_283_11"/>
<feBlend mode="normal" in="SourceGraphic" in2="effect1_dropShadow_283_11" result="shape"/>
</filter>
</defs>
</svg>
