<svg width="355" height="354" viewBox="0 0 355 354" fill="none" xmlns="http://www.w3.org/2000/svg">
<g filter="url(#filter0_d_54_697)">
<path d="M350.627 0.396051L275.205 151.094C233.646 234.132 198.629 304.451 197.396 307.348C194.816 313.412 190.163 323.034 186.025 331.145C183.956 335.199 182.016 338.874 180.53 341.535C179.786 342.866 179.158 343.94 178.684 344.682C178.446 345.053 178.25 345.336 178.1 345.525C178.059 345.577 178.022 345.62 177.991 345.654C177.984 345.641 177.976 345.626 177.968 345.611C177.883 345.447 177.758 345.202 177.592 344.877C177.262 344.229 176.774 343.266 176.14 342.009C174.871 339.497 173.015 335.811 170.656 331.119C165.937 321.735 159.205 308.327 151.129 292.23C134.977 260.035 113.448 217.084 91.8944 174.06C70.3405 131.036 48.7615 87.9388 32.5094 55.4512C24.3833 39.2073 17.589 25.616 12.7954 16.0124C8.47703 7.36097 5.78725 1.95545 5.20591 0.754996C5.22626 0.753747 5.24785 0.752491 5.27068 0.751229C5.50769 0.73813 5.86511 0.725116 6.33814 0.712276C7.28354 0.686614 8.68402 0.661815 10.4914 0.638163C14.1058 0.590864 19.3442 0.548194 25.8162 0.512324C38.7601 0.440584 56.6371 0.396051 76.3225 0.396051C96.0077 0.396051 113.903 0.431952 126.878 0.489744C133.365 0.518639 138.621 0.553007 142.256 0.591091C144.073 0.610135 145.484 0.630102 146.441 0.650764C146.919 0.661101 147.283 0.671586 147.526 0.682159C147.561 0.683687 147.594 0.685212 147.624 0.686724C147.562 0.825592 147.471 1.02021 147.354 1.26531C147.116 1.76209 146.772 2.46081 146.346 3.31065C145.495 5.01007 144.321 7.31082 143.03 9.80262C137.108 21.2282 131.696 31.7414 124.188 46.4048L118.287 57.9305L118.238 58.0243L118.288 58.1173L120.15 61.6029C123.288 67.4773 129.989 80.362 132.24 84.849C133.414 87.1899 136.787 93.7212 139.734 99.3629C142.682 105.004 147.29 113.898 149.974 119.127C152.659 124.356 156.375 131.562 158.234 135.14C160.093 138.717 163.583 145.472 165.99 150.15C169.45 156.875 172.292 162.375 174.293 166.221C175.294 168.144 176.084 169.654 176.636 170.696C176.912 171.218 177.129 171.623 177.283 171.904C177.36 172.045 177.422 172.156 177.467 172.235C177.49 172.275 177.51 172.308 177.526 172.334C177.538 172.354 177.557 172.384 177.576 172.405L177.576 172.406C177.605 172.438 177.645 172.463 177.693 172.472C177.738 172.481 177.775 172.473 177.8 172.465C177.844 172.451 177.875 172.425 177.887 172.414C177.901 172.402 177.913 172.389 177.925 172.374C177.94 172.357 177.954 172.34 177.966 172.323C178.013 172.258 178.075 172.16 178.149 172.034C178.298 171.779 178.51 171.387 178.789 170.854C179.347 169.786 180.173 168.144 181.288 165.888C183.517 161.376 186.902 154.401 191.602 144.641C197.383 132.637 206.159 114.634 206.842 113.376L206.665 113.28L206.842 113.376C207.219 112.682 209.889 107.158 212.771 101.108C215.655 95.0536 220.542 84.9215 223.63 78.5923C226.719 72.262 231.674 62.0163 234.641 55.8237C237.608 49.6319 242.83 38.8241 246.245 31.8066C249.661 24.7885 254.468 14.8244 256.929 9.66338L261.348 0.396051H306.087H350.627Z" stroke="url(#paint0_radial_54_697)" stroke-width="0.403064" shape-rendering="crispEdges"/>
</g>
<defs>
<filter id="filter0_d_54_697" x="0.905029" y="0.194519" width="354.048" height="353.758" filterUnits="userSpaceOnUse" color-interpolation-filters="sRGB">
<feFlood flood-opacity="0" result="BackgroundImageFix"/>
<feColorMatrix in="SourceAlpha" type="matrix" values="0 0 0 0 0 0 0 0 0 0 0 0 0 0 0 0 0 0 127 0" result="hardAlpha"/>
<feOffset dy="4"/>
<feGaussianBlur stdDeviation="2"/>
<feComposite in2="hardAlpha" operator="out"/>
<feColorMatrix type="matrix" values="0 0 0 0 0 0 0 0 0 0 0 0 0 0 0 0 0 0 0.25 0"/>
<feBlend mode="normal" in2="BackgroundImageFix" result="effect1_dropShadow_54_697"/>
<feBlend mode="normal" in="SourceGraphic" in2="effect1_dropShadow_54_697" result="shape"/>
</filter>
<radialGradient id="paint0_radial_54_697" cx="0" cy="0" r="1" gradientUnits="userSpaceOnUse" gradientTransform="translate(178.111 55.9972) rotate(90) scale(49.0553 204.437)">
<stop stop-color="white"/>
<stop offset="1" stop-color="white" stop-opacity="0"/>
</radialGradient>
</defs>
</svg>
