<svg width="44" height="31" viewBox="0 0 44 31" fill="none" xmlns="http://www.w3.org/2000/svg">
<path fill-rule="evenodd" clip-rule="evenodd" d="M14.4836 0.0973291C12.8166 0.292713 10.6697 1.03221 9.17833 1.92452C6.86595 3.30798 4.679 5.66259 3.52341 8.01276C2.87721 9.32697 1.82845 12.499 1.21072 15.0075C0.5258 17.7891 -0.00280534 21.2528 1.12028e-05 22.9406C0.00534252 26.1725 1.94011 28.535 5.78248 30.0017C7.38077 30.6118 9.24241 30.9993 10.5789 31C11.3361 31.0004 11.3562 30.9937 11.584 30.6655C11.7117 30.4812 12.2392 29.8035 12.7561 29.1593C13.273 28.5151 13.658 27.9528 13.6119 27.9096C13.5657 27.8665 13.279 27.7491 12.9747 27.649C11.2799 27.0911 9.26484 25.8307 8.04829 24.5676C7.63477 24.1381 7.33017 23.7868 7.37152 23.7868C7.41286 23.7868 7.79652 23.9665 8.22403 24.1861C9.17461 24.6742 11.8117 25.6997 13.3771 26.1898C17.0402 27.3368 19.0316 27.6952 22.1867 27.7753C24.6255 27.8373 25.7424 27.7469 27.7113 27.3285C30.1705 26.8059 33.5406 25.4339 35.7676 24.0488C36.1775 23.7939 36.513 23.6246 36.513 23.6729C36.513 23.7212 36.1697 24.0948 35.75 24.5032C34.4712 25.7476 32.8927 26.6981 30.886 27.4322L29.9527 27.7736L30.9947 29.0907C31.5679 29.8151 32.1103 30.5021 32.2001 30.6175C32.3536 30.8143 32.4363 30.823 33.5581 30.7615C36.0515 30.6246 38.9192 29.6567 41.0396 28.2363C42.226 27.4415 43.1938 26.1892 43.7421 24.7392C43.9873 24.0908 44.0044 23.9345 43.9993 22.3957C43.9932 20.6032 43.7486 18.8045 43.1374 16.058C42.5592 13.4597 41.5299 10.2272 40.6818 8.34685C39.4733 5.66712 36.8861 2.96492 34.2056 1.5827C32.7103 0.811677 30.6958 0.238406 29.0653 0.119897C28.2101 0.0576547 28.1451 0.067445 27.9101 0.293641C27.7731 0.425443 27.661 0.569817 27.661 0.614438C27.661 0.659059 27.8534 0.748095 28.0885 0.812399C29.7109 1.25593 32.608 2.51263 34.2805 3.49842C35.9533 4.4843 37.4212 5.60818 36.2249 4.98719C35.9447 4.84168 35.1686 4.49244 34.5005 4.21101C28.7747 1.79983 22.3626 1.04797 16.1452 2.05869C13.5106 2.48697 10.5753 3.36033 8.07203 4.46081C6.6368 5.09168 6.67493 4.9943 8.29726 3.88589C10.0462 2.69091 12.5446 1.56828 15.1097 0.824559L16.3896 0.453473L16.1735 0.217796C15.9361 -0.0410675 15.7666 -0.0531251 14.4836 0.0973291ZM16.332 13.9182C17.1446 14.2161 17.9974 15.0364 18.43 15.9362C18.7381 16.5771 18.7587 16.6879 18.7587 17.7044C18.7587 18.7068 18.735 18.8396 18.4449 19.4587C17.6871 21.0761 15.9552 22.0457 14.4029 21.7216C13.1224 21.4542 12.1128 20.6285 11.5328 19.3742C11.2445 18.7509 11.2144 18.5929 11.2144 17.7015C11.2144 16.7707 11.235 16.6744 11.5938 15.9306C12.0256 15.0357 12.6264 14.4189 13.4451 14.0301C14.4562 13.5499 15.2441 13.5193 16.332 13.9182ZM30.1508 13.9149C30.828 14.1715 31.5662 14.7706 31.9651 15.3875C32.4538 16.1434 32.6399 16.8132 32.6382 17.8099C32.6367 18.5758 32.5968 18.7723 32.3201 19.3742C31.7442 20.6267 30.7333 21.454 29.4517 21.7216C27.8927 22.0471 26.1532 21.0742 25.406 19.459C25.118 18.8365 25.0959 18.7084 25.0964 17.6553C25.097 16.5828 25.1142 16.4881 25.4162 15.8951C26.3774 14.0087 28.2885 13.2094 30.1508 13.9149Z" fill="url(#paint0_radial_46_105)"/>
<defs>
<radialGradient id="paint0_radial_46_105" cx="0" cy="0" r="1" gradientUnits="userSpaceOnUse" gradientTransform="translate(22 15.5) rotate(90) scale(22.0515 31.299)">
<stop stop-color="white"/>
<stop offset="1" stop-color="white" stop-opacity="0"/>
</radialGradient>
</defs>
</svg>
