<svg width="142" height="97" viewBox="0 0 142 97" fill="none" xmlns="http://www.w3.org/2000/svg">
<path fill-rule="evenodd" clip-rule="evenodd" d="M32.0338 0.237866C25.416 1.12371 19.0188 4.50638 14.3214 9.60367C10.8134 13.4105 8.84583 17.1038 6.67523 23.9572C-0.377984 46.2253 -1.98694 69.3019 2.54315 83.2249C3.94575 87.5352 5.3808 90.0899 7.75554 92.5033C14.0141 98.8638 21.9593 98.4748 31.3482 91.3486C36.7439 87.2533 43.1373 79.876 48.1283 71.9869L49.5151 69.7947L71.0104 69.7979L92.5056 69.8013L94.4757 72.8464C101.838 84.228 110.597 92.7307 117.949 95.633C124.078 98.0526 129.379 97.1838 133.803 93.0334C135.902 91.0644 136.995 89.3972 138.45 85.9424C142.113 77.2435 142.979 63.7528 140.872 48.2091C139.381 37.2139 135.607 22.9007 132.583 16.7716C126.109 3.65063 111.542 -2.85634 97.7815 1.22592C95.0634 2.03227 92.0835 3.42321 89.9159 4.89763L88.4354 5.90443H71.014H53.5926L52.147 4.9087C46.6334 1.11036 38.9114 -0.6829 32.0338 0.237866ZM38.3165 19.409C39.6922 20.7335 39.9463 21.6804 39.9463 25.4861V28.9023H43.4449C46.4944 28.9023 47.0774 28.9795 47.9885 29.5036C50.7702 31.1038 50.9213 35.2105 48.2673 37.0651C47.4316 37.6489 47.0341 37.7039 43.6495 37.7039H39.9463V41.1928C39.9463 45.5073 39.4545 46.825 37.4606 47.8542C35.9043 48.6577 35.1127 48.6577 33.5565 47.8542C31.5626 46.825 31.0708 45.5073 31.0708 41.1928V37.7039H27.3675C23.9829 37.7039 23.5855 37.6489 22.7498 37.0651C20.0958 35.2105 20.2469 31.1038 23.0285 29.5036C23.9397 28.9795 24.5227 28.9023 27.5722 28.9023H31.0708V25.3978C31.0708 22.2996 31.144 21.7519 31.7018 20.6722C32.5721 18.9871 33.8069 18.3321 35.8555 18.4689C37.1577 18.5558 37.6095 18.7284 38.3165 19.409ZM109.086 19.1208C109.497 19.4255 110.097 20.2227 110.421 20.8922C112.026 24.2124 109.179 27.774 105.486 27.0647C103.971 26.774 102.454 25.1096 102.215 23.4756C101.925 21.4987 102.991 19.4397 104.709 18.6555C105.641 18.2301 108.262 18.509 109.086 19.1208ZM98.1959 29.4281C100.314 30.5803 101.107 33.5493 99.857 35.648C98.144 38.5242 93.866 38.4044 92.3259 35.4371C90.3539 31.6387 94.4854 27.4094 98.1959 29.4281ZM118.992 29.5036C122.832 31.7129 121.333 37.7062 116.941 37.7028C114.323 37.7008 112.617 35.9547 112.615 33.2742C112.613 29.873 116.075 27.8256 118.992 29.5036ZM108.464 40.0463C109.796 40.734 110.95 42.5457 110.95 43.9503C110.95 45.3548 109.796 47.1666 108.464 47.8542C107.784 48.2057 106.905 48.4931 106.512 48.4931C106.119 48.4931 105.241 48.2057 104.56 47.8542C103.228 47.1666 102.074 45.3548 102.074 43.9503C102.074 43.5479 102.355 42.6488 102.699 41.952C103.37 40.5883 105.14 39.4075 106.512 39.4075C106.905 39.4075 107.784 39.6948 108.464 40.0463ZM78.2308 48.9238C80.0633 49.8939 80.3282 52.3652 78.7456 53.7286L77.9019 54.4555H71.0104H64.1188L63.2751 53.7286C61.7158 52.3854 61.9507 49.9274 63.7333 48.9374C64.8599 48.3116 77.0526 48.3003 78.2308 48.9238Z" fill="url(#paint0_radial_54_162)"/>
<defs>
<radialGradient id="paint0_radial_54_162" cx="0" cy="0" r="1" gradientUnits="userSpaceOnUse" gradientTransform="translate(71 48.5) rotate(90) scale(69 101.01)">
<stop stop-color="white"/>
<stop offset="1" stop-color="white" stop-opacity="0"/>
</radialGradient>
</defs>
</svg>
