<svg width="81" height="97" viewBox="0 0 81 97" fill="none" xmlns="http://www.w3.org/2000/svg">
<path fill-rule="evenodd" clip-rule="evenodd" d="M36.4079 0.179864C32.2968 0.832934 28.86 2.304 25.5918 4.80974C22.9303 6.85027 19.9103 10.6032 18.5913 13.5095C16.197 18.7845 15.8237 25.0265 17.57 30.5854C19.6515 37.2118 25.5715 43.244 32.1947 45.4875C38.9307 47.769 46.7006 46.8591 52.4322 43.1173C55.3979 41.1811 58.3369 38.1781 60.0583 35.3247C64.1396 28.5597 64.3846 19.386 60.668 12.4815C57.1723 5.98735 50.8246 1.40032 43.7461 0.253418C41.8702 -0.0506529 38.0969 -0.0883774 36.4079 0.179864ZM18.1758 47.0839C8.8593 48.5349 2.94213 56.1897 0.742861 69.6369C0.180424 73.0751 -0.0875123 77.2112 0.0253926 80.7129C0.110973 83.3678 0.204712 84.1176 0.630145 85.5515C2.32068 91.2481 6.23174 94.9383 12.3334 96.593C13.4461 96.8948 15.6038 96.9259 39.444 96.9837C57.5873 97.0277 65.8288 96.9837 66.9586 96.8372C70.5207 96.3746 73.9084 94.7678 76.3441 92.3853C77.9704 90.7946 78.9408 89.3571 79.785 87.2889C80.6793 85.0973 81.0008 82.9661 81 79.2327C80.9977 68.8327 78.5983 59.732 74.358 54.0419C71.1357 49.7178 66.5945 47.2801 61.013 46.8788C58.8428 46.7226 58.2308 46.9324 55.1918 48.8738C51.2612 51.3849 50.6053 51.7521 48.7031 52.5052C45.8403 53.6391 44.0759 54.018 41.1518 54.1274C38.1514 54.2396 35.8642 53.8601 33.0312 52.7799C30.693 51.8886 29.7636 51.3951 26.6641 49.3993C22.4629 46.6941 21.8145 46.5173 18.1758 47.0839Z" fill="url(#paint0_radial_54_710)"/>
<defs>
<radialGradient id="paint0_radial_54_710" cx="0" cy="0" r="1" gradientUnits="userSpaceOnUse" gradientTransform="translate(40.5 48.5) rotate(90) scale(69 57.6186)">
<stop stop-color="white"/>
<stop offset="1" stop-color="white" stop-opacity="0"/>
</radialGradient>
</defs>
</svg>
