<svg width="122" height="97" viewBox="0 0 122 97" fill="none" xmlns="http://www.w3.org/2000/svg">
<path fill-rule="evenodd" clip-rule="evenodd" d="M5.68172 0.277788C3.57588 0.943045 1.47719 2.82044 0.515371 4.89862C0.00453127 6.00238 0 6.1453 0 20.8991C0 35.6915 0.00333881 35.793 0.519663 36.9094C1.24848 38.4847 3.0388 40.3066 4.62069 41.0826L5.96218 41.7405H20.8676H35.7731L37.1146 41.0826C38.6964 40.3066 40.4868 38.4847 41.2156 36.9094C41.7319 35.793 41.7352 35.6915 41.7352 20.8991V6.01239L41.0765 4.67258C40.2996 3.09269 38.4754 1.30461 36.898 0.576713C35.785 0.063181 35.6192 0.0572256 21.2254 0.0105409C9.72765 -0.0268546 6.46896 0.0291199 5.68172 0.277788ZM55.1912 11.9132C53.9551 12.745 53.3019 13.8754 53.3019 15.1826C53.3019 16.4898 53.9551 17.6202 55.1912 18.452L55.9958 18.9936H87.644H119.292L120.097 18.452C122.634 16.7442 122.634 13.621 120.097 11.9132L119.292 11.3716H87.644H55.9958L55.1912 11.9132ZM55.1912 26.2045C53.9551 27.0362 53.3019 28.1667 53.3019 29.4739C53.3019 30.781 53.9551 31.9115 55.1912 32.7432L55.9958 33.2849H77.1506H98.3054L99.11 32.7432C100.346 31.9115 100.999 30.781 100.999 29.4739C100.999 28.1667 100.346 27.0362 99.11 26.2045L98.3054 25.6629H77.1506H55.9958L55.1912 26.2045ZM5.68172 55.5373C3.57588 56.2025 1.47719 58.0799 0.515371 60.1581C0.00453127 61.2619 0 61.4048 0 76.1586C0 90.951 0.00333881 91.0525 0.519663 92.1688C1.24848 93.7442 3.0388 95.5661 4.62069 96.3421L5.96218 97H20.8676H35.7731L37.1146 96.3421C38.6964 95.5661 40.4868 93.7442 41.2156 92.1688C41.7319 91.0525 41.7352 90.951 41.7352 76.1586V61.2719L41.0765 59.9321C40.2996 58.3522 38.4754 56.5641 36.898 55.8362C35.785 55.3227 35.6192 55.3167 21.2254 55.27C9.72765 55.2326 6.46896 55.2886 5.68172 55.5373ZM55.1912 66.22C53.9551 67.0517 53.3019 68.1822 53.3019 69.4893C53.3019 70.7965 53.9551 71.927 55.1912 72.7587L55.9958 73.3003H87.644H119.292L120.097 72.7587C122.634 71.0509 122.634 67.9278 120.097 66.22L119.292 65.6783H87.644H55.9958L55.1912 66.22ZM55.1912 81.464C53.9551 82.2957 53.3019 83.4262 53.3019 84.7333C53.3019 86.0405 53.9551 87.171 55.1912 88.0027L55.9958 88.5443H77.1506H98.3054L99.11 88.0027C100.346 87.171 100.999 86.0405 100.999 84.7333C100.999 83.4262 100.346 82.2957 99.11 81.464L98.3054 80.9223H77.1506H55.9958L55.1912 81.464Z" fill="url(#paint0_radial_46_95)"/>
<defs>
<radialGradient id="paint0_radial_46_95" cx="0" cy="0" r="1" gradientUnits="userSpaceOnUse" gradientTransform="translate(61 48.5) rotate(90) scale(69 86.7835)">
<stop stop-color="white"/>
<stop offset="1" stop-color="white" stop-opacity="0"/>
</radialGradient>
</defs>
</svg>
